SplineFontDB: 3.2
FontName: Arpmini
FullName: Arpmini
FamilyName: Arpmini
Weight: Book
Copyright: Copyright (c)2005+ Digital Flame Studios -- http://digitalflame.8thsin.com
Version: 1.0
ItalicAngle: 0
UnderlinePosition: -120
UnderlineWidth: 48
Ascent: 880
Descent: 144
InvalidEm: 0
sfntRevision: 0x0002b333
LayerCount: 2
Layer: 0 1 "Sfondo" 1
Layer: 1 1 "Fore" 0
XUID: [1021 717 -421822648 1173]
StyleMap: 0x0040
FSType: 4
OS2Version: 1
OS2_WeightWidthSlopeOnly: 0
OS2_UseTypoMetrics: 0
CreationTime: -2082844800
ModificationTime: 1757960338
PfmFamily: 17
TTFWeight: 400
TTFWidth: 5
LineGap: 0
VLineGap: 0
Panose: 2 11 6 0 0 0 0 0 0 0
OS2TypoAscent: 880
OS2TypoAOffset: 0
OS2TypoDescent: -144
OS2TypoDOffset: 0
OS2TypoLinegap: 0
OS2WinAscent: 880
OS2WinAOffset: 0
OS2WinDescent: 144
OS2WinDOffset: 0
HheadAscent: 880
HheadAOffset: 0
HheadDescent: -144
HheadDOffset: 0
OS2SubXSize: 512
OS2SubYSize: 512
OS2SubXOff: 0
OS2SubYOff: 368
OS2SupXSize: 512
OS2SupYSize: 512
OS2SupXOff: 0
OS2SupYOff: 440
OS2StrikeYSize: 52
OS2StrikeYPos: 264
OS2Vendor: 'TAKE'
OS2CodePages: 4000009f.dfd70000
OS2UnicodeRanges: 00000011.00000000.00000000.00000000
MarkAttachClasses: 1
DEI: 91125
TtTable: prep
PUSHW_1
 511
SCANCTRL
PUSHB_1
 1
SCANTYPE
PUSHB_2
 1
 129
RCVT
WCVTP
PUSHB_2
 2
 130
RCVT
WCVTP
PUSHB_2
 3
 131
RCVT
WCVTP
PUSHB_2
 4
 132
RCVT
WCVTP
PUSHB_2
 5
 133
RCVT
WCVTP
PUSHB_2
 6
 134
RCVT
WCVTP
PUSHB_2
 7
 135
RCVT
WCVTP
PUSHB_2
 8
 136
RCVT
WCVTP
PUSHB_2
 9
 137
RCVT
WCVTP
PUSHB_2
 10
 138
RCVT
WCVTP
PUSHB_2
 11
 139
RCVT
WCVTP
PUSHB_2
 12
 140
RCVT
WCVTP
PUSHB_2
 13
 141
RCVT
WCVTP
PUSHB_2
 14
 142
RCVT
WCVTP
PUSHB_2
 15
 143
RCVT
WCVTP
PUSHB_2
 16
 144
RCVT
WCVTP
PUSHB_2
 17
 145
RCVT
WCVTP
PUSHB_2
 18
 146
RCVT
WCVTP
PUSHB_2
 19
 147
RCVT
WCVTP
PUSHB_2
 20
 148
RCVT
WCVTP
PUSHB_2
 21
 149
RCVT
WCVTP
PUSHB_2
 22
 150
RCVT
WCVTP
PUSHB_2
 23
 151
RCVT
WCVTP
PUSHB_2
 24
 152
RCVT
WCVTP
PUSHB_2
 25
 153
RCVT
WCVTP
PUSHB_2
 26
 154
RCVT
WCVTP
PUSHB_2
 27
 155
RCVT
WCVTP
PUSHB_2
 28
 156
RCVT

StartChar: exclam
Encoding: 33 33 1
Width: 876
GlyphClass: 1
Flags: W
LayerCount: 2
Fore
SplineSet
146.5 3 m 1,0,-1
 146.5 149 l 1,1,-1
 292.5 149 l 1,2,-1
 292.5 3 l 1,3,-1
 146.5 3 l 1,0,-1
146.5 295 m 1,4,-1
 146.5 733 l 1,5,-1
 292.5 733 l 1,6,-1
 292.5 295 l 1,7,-1
 146.5 295 l 1,4,-1
EndSplineSet
Validated: 1
EndChar

StartChar: quotedbl
Encoding: 34 34 2
Width: 876
GlyphClass: 1
Flags: W
LayerCount: 2
Fore
SplineSet
293 2 m 1,0,-1
 293 148 l 1,1,2
 292 148 292 148 438 148 c 1,3,-1
 438 2 l 1,4,5
 292 2 292 2 293 2 c 1,0,-1
438.5 148 m 1,6,-1
 438 294 l 1,7,-1
 584.5 294 l 1,8,-1
 584.5 148 l 1,9,-1
 438.5 148 l 1,6,-1
146.5 148 m 1,10,-1
 146.5 294 l 1,11,-1
 292.5 294 l 1,12,-1
 292.5 148 l 1,13,-1
 146.5 148 l 1,10,-1
584.5 440 m 1,14,-1
 730.5 440 l 1,15,-1
 730.5 294 l 5,16,-1
 584.5 294 l 5,17,-1
 584.5 440 l 1,14,-1
0 294 m 1,18,-1
 0 440 l 1,19,-1
 146.5 440 l 1,20,-1
 146.5 294 l 1,21,-1
 0 294 l 1,18,-1
438.5 440 m 1,22,-1
 438 588 l 1,23,-1
 584.5 588 l 1,24,-1
 584.5 440 l 1,25,-1
 438.5 440 l 1,22,-1
146.5 440 m 1,26,-1
 146.5 588 l 1,27,-1
 292.5 588 l 1,28,-1
 292.5 440 l 1,29,-1
 146.5 440 l 1,26,-1
292.5 588 m 1,30,-1
 292.5 732 l 1,31,-1
 438.5 732 l 1,32,-1
 438.5 588 l 1,33,-1
 292.5 588 l 1,30,-1
EndSplineSet
EndChar

StartChar: numbersign
Encoding: 35 35 3
Width: 877
GlyphClass: 1
Flags: W
LayerCount: 2
Fore
SplineSet
0 587 m 1,0,-1
 730 587 l 1,1,-1
 730 440 l 1,2,-1
 0 440 l 1,3,-1
 0 587 l 1,0,-1
0 295 m 1,4,-1
 730 295 l 1,5,-1
 730 151 l 1,6,-1
 0 151 l 1,7,-1
 0 295 l 1,4,-1
438 732 m 1,8,-1
 586 732 l 1,9,-1
 586 0 l 1,10,-1
 438 0 l 1,11,-1
 438 732 l 1,8,-1
146 732 m 1,12,-1
 292 732 l 1,13,-1
 292 0 l 1,14,-1
 146 0 l 1,15,-1
 146 732 l 1,12,-1
EndSplineSet
Validated: 5
EndChar

StartChar: dollar
Encoding: 36 36 4
Width: 876
GlyphClass: 1
Flags: W
LayerCount: 2
Fore
SplineSet
292.5 732 m 1,0,-1
 292.5 877 l 1,1,-1
 438.5 877 l 1,2,-1
 438 732 l 1,3,-1
 292.5 732 l 1,0,-1
146 158 m 1,4,-1
 586 158 l 1,5,-1
 586 0 l 1,6,-1
 146 0 l 1,7,-1
 146 158 l 1,4,-1
0 294 m 1,8,-1
 730 294 l 1,9,-1
 730 147 l 1,10,-1
 0 147 l 1,11,-1
 0 294 l 1,8,-1
292.5 732 m 1,12,-1
 438.5 732 l 1,13,-1
 438 -140 l 1,14,-1
 292 -140 l 1,15,-1
 292.5 732 l 1,12,-1
EndSplineSet
EndChar

StartChar: percent
Encoding: 37 37 5
Width: 878
GlyphClass: 1
Flags: W
LayerCount: 2
Fore
SplineSet
584 147 m 1,0,-1
 732 147 l 1,1,-1
 732 0 l 1,2,-1
 584 0 l 1,3,-1
 584 147 l 1,0,-1
0 732 m 1,4,-1
 146 732 l 1,5,-1
 146 588 l 1,6,-1
 0 588 l 1,7,-1
 0 732 l 1,4,-1
584 733 m 1,8,-1
 732 733 l 1,9,-1
 732 588 l 1,10,-1
 584 588 l 1,11,-1
 584 733 l 1,8,-1
438 589 m 1,12,-1
 584 589 l 1,13,-1
 584 441 l 1,14,-1
 438 441 l 1,15,-1
 438 589 l 1,12,-1
292 440 m 1,16,-1
 438 440 l 1,17,-1
 438 295 l 1,18,-1
 292 295 l 1,19,-1
 292 440 l 1,16,-1
146 294 m 1,20,-1
 292 294 l 1,21,-1
 292 148 l 1,22,-1
 146 148 l 1,23,-1
 146 294 l 1,20,-1
0 149 m 1,24,-1
 146 149 l 1,25,-1
 146 0 l 1,26,-1
 0 0 l 1,27,-1
 0 149 l 1,24,-1
EndSplineSet
Validated: 2053
EndChar

StartChar: ampersand
Encoding: 38 38 6
Width: 877
GlyphClass: 1
Flags: W
LayerCount: 2
Fore
SplineSet
292 651 m 5,0,-1
 438 651 l 1,1,-1
 438 148 l 1,2,-1
 292 148 l 1,3,-1
 292 651 l 5,0,-1
292 732 m 1,4,-1
 730 732 l 1,5,-1
 730 588 l 1,6,-1
 292 588 l 1,7,-1
 292 732 l 1,4,-1
0 148 m 1,8,-1
 438 148 l 1,9,-1
 438 2 l 1,10,-1
 0 2 l 1,11,-1
 0 148 l 1,8,-1
EndSplineSet
EndChar

StartChar: quotesingle
Encoding: 39 39 7
Width: 877
GlyphClass: 1
Flags: W
LayerCount: 2
Fore
SplineSet
730.5 295 m 1,0,-1
 585 295 l 1,1,-1
 584.5 588 l 1,2,-1
 730.5 588 l 1,3,-1
 730.5 295 l 1,0,-1
437 732 m 1,4,-1
 584.5 732 l 1,5,-1
 584.5 440 l 1,6,-1
 438 440 l 1,7,-1
 437 732 l 1,4,-1
292 732 m 1,8,-1
 438.5 732 l 1,9,-1
 438.5 294 l 1,10,-1
 292 294 l 1,11,-1
 292 732 l 1,8,-1
0 294 m 1,12,-1
 438.5 294 l 1,13,-1
 439.5 2 l 1,14,-1
 1 2 l 1,15,-1
 0 294 l 1,12,-1
EndSplineSet
EndChar

StartChar: parenleft
Encoding: 40 40 8
Width: 878
GlyphClass: 1
Flags: W
LayerCount: 2
Fore
SplineSet
438 148 m 1,0,-1
 732 148 l 1,1,-1
 732 0 l 1,2,-1
 438 0 l 1,3,-1
 438 148 l 1,0,-1
292 150 m 1,4,-1
 292 0 l 1,5,-1
 0 0 l 1,6,-1
 0 150 l 1,7,-1
 292 150 l 1,4,-1
584 295 m 1,8,-1
 732 295 l 1,9,-1
 732 0 l 1,10,-1
 584 0 l 1,11,-1
 584 295 l 1,8,-1
584 726 m 1,12,-1
 732 726 l 1,13,-1
 732 439 l 1,14,-1
 584 439 l 1,15,-1
 584 726 l 1,12,-1
438 733 m 1,16,-1
 732 733 l 1,17,-1
 732 587 l 1,18,-1
 438 587 l 1,19,-1
 438 733 l 1,16,-1
292 735 m 1,20,-1
 292 588 l 1,21,-1
 6 588 l 1,22,-1
 6 735 l 1,23,-1
 292 735 l 1,20,-1
0 294 m 1,24,-1
 146 294 l 1,25,-1
 146 7 l 1,26,-1
 0 7 l 1,27,-1
 0 294 l 1,24,-1
0 736 m 1,28,-1
 146 736 l 1,29,-1
 146 441 l 1,30,-1
 0 441 l 1,31,-1
 0 736 l 1,28,-1
EndSplineSet
Validated: 2053
EndChar

StartChar: parenright
Encoding: 41 41 9
Width: 876
GlyphClass: 1
Flags: W
LayerCount: 2
Fore
SplineSet
147 588 m 1,0,-1
 585 588 l 1,1,-1
 584 149 l 1,2,-1
 146 149 l 1,3,-1
 147 588 l 1,0,-1
438 152 m 1,4,-1
 731 152 l 1,5,-1
 731 0 l 1,6,-1
 438 0 l 1,7,-1
 438 152 l 1,4,-1
0.5 148 m 1,8,-1
 292 150 l 1,9,-1
 292 2 l 1,10,-1
 0.3994140625 1.798828125 l 1,11,-1
 0.5 148 l 1,8,-1
584 298 m 1,12,-1
 731 298 l 1,13,-1
 731 0 l 1,14,-1
 584 0 l 1,15,-1
 584 298 l 1,12,-1
0 294 m 1,16,-1
 146.5 294 l 1,17,-1
 146 2 l 1,18,-1
 0.3994140625 1.798828125 l 1,19,-1
 0 294 l 1,16,-1
584 668 m 1,20,-1
 731 668 l 1,21,-1
 731 438 l 1,22,-1
 584 438 l 1,23,-1
 584 668 l 1,20,-1
0 723 m 1,24,-1
 146 723 l 1,25,-1
 146 442 l 1,26,-1
 0 442 l 1,27,-1
 0 723 l 1,24,-1
438 734 m 1,28,-1
 731 734 l 1,29,-1
 731 588 l 1,30,-1
 438 588 l 1,31,-1
 438 734 l 1,28,-1
0 732 m 1,32,-1
 292 732 l 1,33,-1
 292 588 l 1,34,-1
 0 588 l 1,35,-1
 0 732 l 1,32,-1
EndSplineSet
Validated: 2053
EndChar

StartChar: asterisk
Encoding: 42 42 10
Width: 877
GlyphClass: 1
Flags: W
LayerCount: 2
Fore
SplineSet
292 294 m 1,0,-1
 438.5 294 l 1,1,-1
 438.5 148 l 1,2,-1
 292.5 148 l 1,3,-1
 292 294 l 1,0,-1
292 588 m 1,4,-1
 439 588 l 1,5,-1
 438.5 440 l 1,6,-1
 292 440 l 1,7,-1
 292 588 l 1,4,-1
438.5 440 m 1,8,-1
 584.5 440 l 1,9,-1
 584.5 294 l 1,10,-1
 438.5 294 l 1,11,-1
 438.5 440 l 1,8,-1
146 440 m 1,12,-1
 292 440 l 1,13,-1
 292 294 l 1,14,-1
 146 294 l 1,15,-1
 146 440 l 1,12,-1
EndSplineSet
Validated: 5
EndChar

StartChar: plus
Encoding: 43 43 11
Width: 879
GlyphClass: 1
Flags: W
LayerCount: 2
Fore
SplineSet
0 440 m 1,0,-1
 732 440 l 1,1,-1
 732 293 l 1,2,-1
 0 293 l 1,3,-1
 0 440 l 1,0,-1
292 732 m 1,4,-1
 438.5 732 l 1,5,-1
 438.5 2 l 1,6,-1
 292 2 l 1,7,-1
 292 732 l 1,4,-1
EndSplineSet
Validated: 5
EndChar

StartChar: comma
Encoding: 44 44 12
Width: 876
GlyphClass: 1
Flags: W
LayerCount: 2
Fore
SplineSet
730 732 m 1,0,-1
 730 589 l 1,1,-1
 584 589 l 1,2,-1
 584 732 l 1,3,-1
 730 732 l 1,0,-1
0 733 m 1,4,-1
 146 733 l 1,5,-1
 146 589 l 1,6,-1
 0 589 l 1,7,-1
 0 733 l 1,4,-1
438 589 m 1,8,-1
 584 589 l 1,9,-1
 584 440 l 1,10,-1
 438 440 l 1,11,-1
 438 589 l 1,8,-1
146 589 m 1,12,-1
 292 589 l 1,13,-1
 292 439 l 1,14,-1
 146 439 l 1,15,-1
 146 589 l 1,12,-1
584 440 m 1,16,-1
 730 440 l 1,17,-1
 730 294 l 1,18,-1
 584 294 l 1,19,-1
 584 440 l 1,16,-1
0 440 m 1,20,-1
 146 440 l 1,21,-1
 146 293 l 1,22,-1
 0 293 l 1,23,-1
 0 440 l 1,20,-1
0 294 m 1,24,-1
 730 294 l 1,25,-1
 730 2 l 1,26,-1
 0 2 l 1,27,-1
 0 294 l 1,24,-1
EndSplineSet
Validated: 2053
EndChar

StartChar: hyphen
Encoding: 45 45 13
Width: 877
GlyphClass: 1
Flags: W
LayerCount: 2
Fore
SplineSet
0 295 m 1,0,-1
 0 441 l 1,1,-1
 732 440 l 1,2,-1
 732 294 l 1,3,-1
 0 295 l 1,0,-1
EndSplineSet
Validated: 1
EndChar

StartChar: period
Encoding: 46 46 14
Width: 878
GlyphClass: 1
Flags: W
LayerCount: 2
Fore
SplineSet
147 2 m 1,0,-1
 147 148 l 1,1,-1
 293 148 l 1,2,-1
 293 2 l 1,3,-1
 147 2 l 1,0,-1
EndSplineSet
Validated: 1
EndChar

StartChar: slash
Encoding: 47 47 15
Width: 877
GlyphClass: 1
Flags: W
LayerCount: 2
Fore
SplineSet
146 296 m 1,0,-1
 292 296 l 1,1,-1
 292 0 l 1,2,-1
 146 0 l 1,3,-1
 146 296 l 1,0,-1
584 638 m 1,4,-1
 584 439 l 1,5,-1
 438 439 l 1,6,-1
 438 638 l 1,7,-1
 584 638 l 1,4,-1
292 439 m 1,8,-1
 438 439 l 1,9,-1
 438 294 l 1,10,-1
 292 294 l 1,11,-1
 292 439 l 1,8,-1
438 732 m 1,12,-1
 584 732 l 1,13,-1
 584 590 l 1,14,-1
 438 590 l 1,15,-1
 438 732 l 1,12,-1
146 148 m 1,16,-1
 292 148 l 1,17,-1
 292 0 l 1,18,-1
 146 0 l 1,19,-1
 146 148 l 1,16,-1
EndSplineSet
Validated: 5
EndChar

StartChar: zero
Encoding: 48 48 16
Width: 878
GlyphClass: 1
Flags: W
LayerCount: 2
Fore
SplineSet
124 294 m 1,0,-1
 292 294 l 1,1,-1
 292 124 l 1,2,-1
 124 124 l 1,3,-1
 124 294 l 1,0,-1
438 610 m 1,4,-1
 590 610 l 1,5,-1
 590 440 l 1,6,-1
 438 440 l 1,7,-1
 438 610 l 1,4,-1
292 442 m 1,8,-1
 438 442 l 1,9,-1
 438 292 l 1,10,-1
 292 292 l 1,11,-1
 292 442 l 1,8,-1
-1 3 m 1,12,-1
 -1 733 l 1,13,-1
 729 733 l 1,14,-1
 729 3 l 1,15,-1
 -1 3 l 1,12,-1
145 149 m 1,16,-1
 583 149 l 1,17,-1
 583 587 l 1,18,-1
 145 587 l 1,19,-1
 145 149 l 1,16,-1
EndSplineSet
Validated: 5
EndChar

StartChar: one
Encoding: 49 49 17
Width: 877
GlyphClass: 1
Flags: W
LayerCount: 2
Fore
SplineSet
182 950 m 1025,0,-1
143.5 3 m 1,1,-1
 143.5 149 l 1,2,-1
 291 149 l 1,3,-1
 292.5 440 l 1,4,-1
 146.5 439 l 1,5,-1
 146.5 588 l 0,6,7
 146.5 588 146.5 588 292.5 588 c 5,8,-1
 293 733 l 0,9,10
 293 733 293 733 437 733 c 1,11,-1
 437 149 l 1,12,-1
 581.5 149 l 1,13,-1
 581.5 3 l 1,14,-1
 143.5 3 l 1,1,-1
EndSplineSet
EndChar

StartChar: two
Encoding: 50 50 18
Width: 876
GlyphClass: 1
Flags: W
LayerCount: 2
Fore
SplineSet
730 440 m 1025,0,-1
730 587 m 1025,1,-1
584 440 m 1025,2,-1
731 440 m 1,3,-1
 585 440 l 1,4,-1
 584 588 l 1,5,-1
 730 588 l 1,6,-1
 731 440 l 1,3,-1
584 587 m 1025,7,-1
146 440 m 1,8,-1
 584 440 l 1,9,-1
 584 294 l 1,10,-1
 146 294 l 1,11,-1
 146 440 l 1,8,-1
0 294 m 1,12,-1
 146 294 l 1,13,-1
 146 148 l 1,14,-1
 0 148 l 1,15,-1
 0 294 l 1,12,-1
731 440 m 1,16,-1
 585 440 l 1,17,-1
 584 588 l 1,18,-1
 730 588 l 1,19,-1
 731 440 l 1,16,-1
0 732 m 1,20,-1
 584 732 l 1,21,-1
 584 587 l 1,22,-1
 0 587 l 1,23,-1
 0 732 l 1,20,-1
0 148 m 1,24,-1
 730.5 148 l 1,25,-1
 731 2 l 1,26,-1
 0 2 l 1,27,-1
 0 148 l 1,24,-1
238 948 m 1025,28,-1
EndSplineSet
Validated: 2053
EndChar

StartChar: three
Encoding: 51 51 19
Width: 876
GlyphClass: 1
Flags: W
LayerCount: 2
Fore
SplineSet
730 294 m 1,0,-1
 730 70 l 1,1,-1
 584 70 l 1,2,-1
 584 294 l 1,3,-1
 730 294 l 1,0,-1
584 732 m 1,4,-1
 730 732 l 1,5,-1
 730 440 l 1,6,-1
 584 440 l 1,7,-1
 584 732 l 1,4,-1
0 148 m 1,8,-1
 730 148 l 1,9,-1
 730 2 l 1,10,-1
 0 2 l 1,11,-1
 0 148 l 1,8,-1
146.5 440 m 5,12,-1
 584 440 l 1,13,-1
 584 294 l 1,14,-1
 146.5 294 l 5,15,-1
 146.5 440 l 5,12,-1
0 734 m 1,16,-1
 730 734 l 1,17,-1
 730 588 l 1,18,-1
 0 588 l 1,19,-1
 0 734 l 1,16,-1
EndSplineSet
EndChar

StartChar: four
Encoding: 52 52 20
Width: 879
GlyphClass: 1
Flags: W
LayerCount: 2
Fore
SplineSet
0.5 148 m 1,0,-1
 0.5 732 l 1,1,-1
 146.5 732 l 1,2,-1
 146.5 294 l 1,3,-1
 438.5 294 l 1,4,-1
 438.5 440 l 5,5,-1
 584.5 440 l 5,6,-1
 584.5 294 l 1,7,-1
 730.5 294 l 1,8,-1
 730.5 148 l 1,9,-1
 584.5 148 l 1,10,-1
 585 2 l 1,11,-1
 439 2 l 1,12,-1
 438.5 148 l 1,13,-1
 0.5 148 l 1,0,-1
EndSplineSet
EndChar

StartChar: five
Encoding: 53 53 21
Width: 879
GlyphClass: 1
Flags: W
LayerCount: 2
Fore
SplineSet
146 632 m 1,0,-1
 146 364 l 1,1,-1
 0 364 l 1,2,-1
 0 632 l 1,3,-1
 146 632 l 1,0,-1
730 294 m 1,4,-1
 730 148 l 1,5,-1
 584 148 l 1,6,-1
 584 294 l 1,7,-1
 730 294 l 1,4,-1
0 440 m 1,8,-1
 584 440 l 1,9,-1
 584 294 l 1,10,-1
 0 294 l 1,11,-1
 0 440 l 1,8,-1
0 148 m 1,12,-1
 584 148 l 1,13,-1
 584 2 l 1,14,-1
 0 2 l 1,15,-1
 0 148 l 1,12,-1
0 732 m 1,16,-1
 730 732 l 1,17,-1
 730 588 l 1,18,-1
 0 588 l 1,19,-1
 0 732 l 1,16,-1
EndSplineSet
Validated: 5
EndChar

StartChar: six
Encoding: 54 54 22
Width: 878
GlyphClass: 1
Flags: W
LayerCount: 2
Fore
SplineSet
730 733 m 1,0,-1
 730 587 l 1,1,-1
 146 587 l 1,2,-1
 146 441 l 1,3,-1
 730 441 l 1,4,-1
 730 3 l 1,5,-1
 0 3 l 1,6,-1
 0 733 l 1,7,-1
 730 733 l 1,0,-1
584 149 m 1,8,-1
 584 295 l 1,9,-1
 146 295 l 1,10,-1
 146 149 l 1,11,-1
 584 149 l 1,8,-1
EndSplineSet
Validated: 1
EndChar

StartChar: seven
Encoding: 55 55 23
Width: 876
GlyphClass: 1
Flags: W
LayerCount: 2
Fore
SplineSet
438 440 m 1,0,-1
 584 440 l 1,1,-1
 584 294 l 1,2,-1
 438 294 l 1,3,-1
 438 440 l 1,0,-1
584 704 m 1,4,-1
 730 704 l 1,5,-1
 730 440 l 1,6,-1
 584 440 l 1,7,-1
 584 704 l 1,4,-1
292 294 m 1,8,-1
 438 294 l 1,9,-1
 438 0 l 1,10,-1
 292 0 l 1,11,-1
 292 294 l 1,8,-1
0 732 m 1,12,-1
 730 732 l 1,13,-1
 730 586 l 1,14,-1
 0 586 l 1,15,-1
 0 732 l 1,12,-1
EndSplineSet
Validated: 5
EndChar

StartChar: eight
Encoding: 56 56 24
Width: 877
GlyphClass: 1
Flags: W
LayerCount: 2
Fore
SplineSet
0 3 m 1,0,-1
 0 733 l 1,1,-1
 730 733 l 1,2,-1
 730 3 l 1,3,-1
 0 3 l 1,0,-1
146 295 m 1,4,-1
 146 149 l 1,5,-1
 584 149 l 1,6,-1
 584 295 l 1,7,-1
 146 295 l 1,4,-1
146 587 m 1,8,-1
 146 441 l 1,9,-1
 584 441 l 1,10,-1
 584 587 l 1,11,-1
 146 587 l 1,8,-1
EndSplineSet
Validated: 1
EndChar

StartChar: nine
Encoding: 57 57 25
Width: 878
GlyphClass: 1
Flags: W
LayerCount: 2
Fore
SplineSet
0 3 m 1,0,-1
 0 149 l 1,1,-1
 584 149 l 1,2,-1
 584 295 l 1,3,-1
 0 295 l 1,4,-1
 0 733 l 1,5,-1
 730 733 l 1,6,-1
 730 3 l 1,7,-1
 0 3 l 1,0,-1
146 587 m 1,8,-1
 146 441 l 1,9,-1
 584 441 l 1,10,-1
 584 587 l 1,11,-1
 146 587 l 1,8,-1
EndSplineSet
Validated: 1
EndChar

StartChar: colon
Encoding: 58 58 26
Width: 875
GlyphClass: 1
Flags: W
LayerCount: 2
Fore
SplineSet
438 148 m 1,0,-1
 438 2 l 1,1,-1
 0 2 l 1,2,-1
 0 148 l 1,3,-1
 438 148 l 1,0,-1
584.5 148 m 1,4,-1
 730 148 l 1,5,-1
 730 2 l 1,6,-1
 584 2 l 1,7,-1
 584.5 148 l 1,4,-1
0 441 m 1,8,-1
 730 441 l 1,9,-1
 730 293 l 1,10,-1
 0 293 l 1,11,-1
 0 441 l 1,8,-1
292.5 732 m 1,12,-1
 730 732 l 1,13,-1
 730 588 l 1,14,-1
 292.5 588 l 1,15,-1
 292.5 732 l 1,12,-1
0.5 732 m 1,16,-1
 147 732 l 1,17,-1
 146.5 588 l 1,18,-1
 0.5 588 l 1,19,-1
 0.5 732 l 1,16,-1
EndSplineSet
Validated: 1
EndChar

StartChar: semicolon
Encoding: 59 59 27
Width: 876
GlyphClass: 1
Flags: W
LayerCount: 2
Fore
SplineSet
292 1024 m 1,0,-1
 584 1024 l 1,1,-1
 584 -144 l 1,2,-1
 292 -144 l 5,3,-1
 292 1024 l 1,0,-1
0 1024 m 1,4,-1
 146 1024 l 1,5,-1
 146 -144 l 1,6,-1
 0 -144 l 1,7,-1
 0 1024 l 1,4,-1
EndSplineSet
EndChar

StartChar: less
Encoding: 60 60 28
Width: 877
GlyphClass: 1
Flags: W
LayerCount: 2
Fore
SplineSet
584 732 m 1,0,-1
 584 589 l 1,1,-1
 438 589 l 1,2,-1
 438 732 l 1,3,-1
 584 732 l 1,0,-1
584 148 m 1,4,-1
 584 0 l 1,5,-1
 440 0 l 1,6,-1
 440 148 l 1,7,-1
 584 148 l 1,4,-1
438 294 m 1,8,-1
 438 148 l 1,9,-1
 292 148 l 1,10,-1
 292 294 l 1,11,-1
 438 294 l 1,8,-1
292 589 m 1,12,-1
 438 589 l 1,13,-1
 438 441 l 1,14,-1
 292 441 l 1,15,-1
 292 589 l 1,12,-1
146 439 m 1,16,-1
 292 439 l 1,17,-1
 292 293 l 1,18,-1
 146 293 l 1,19,-1
 146 439 l 1,16,-1
EndSplineSet
Validated: 5
EndChar

StartChar: equal
Encoding: 61 61 29
Width: 878
GlyphClass: 1
Flags: W
LayerCount: 2
Fore
SplineSet
0 149 m 1,0,-1
 0 295 l 1,1,-1
 730 295 l 1,2,-1
 730 149 l 1,3,-1
 0 149 l 1,0,-1
0 441 m 1,4,-1
 0 587 l 1,5,-1
 730 587 l 1,6,-1
 730 441 l 1,7,-1
 0 441 l 1,4,-1
EndSplineSet
Validated: 1
EndChar

StartChar: greater
Encoding: 62 62 30
Width: 878
GlyphClass: 1
Flags: W
LayerCount: 2
Fore
SplineSet
584 440 m 1,0,-1
 584 296 l 1,1,-1
 438 296 l 1,2,-1
 438 440 l 1,3,-1
 584 440 l 1,0,-1
438 296 m 1,4,-1
 438 147 l 1,5,-1
 292 147 l 1,6,-1
 292 296 l 1,7,-1
 438 296 l 1,4,-1
438 588 m 1,8,-1
 438 441 l 1,9,-1
 292 441 l 1,10,-1
 292 588 l 1,11,-1
 438 588 l 1,8,-1
146 147 m 1,12,-1
 292 147 l 1,13,-1
 292 0 l 1,14,-1
 146 0 l 1,15,-1
 146 147 l 1,12,-1
146 733 m 1,16,-1
 292 733 l 1,17,-1
 292 588 l 1,18,-1
 146 588 l 1,19,-1
 146 733 l 1,16,-1
EndSplineSet
Validated: 5
EndChar

StartChar: question
Encoding: 63 63 31
Width: 879
GlyphClass: 1
Flags: W
LayerCount: 2
Fore
SplineSet
0 588 m 1,0,-1
 146.5 588 l 1,1,-1
 146.5 440 l 1,2,-1
 0 440 l 1,3,-1
 0 588 l 1,0,-1
146.5 732 m 1,4,-1
 292 732 l 1,5,-1
 292.5 588 l 1,6,-1
 146.5 588 l 1,7,-1
 146.5 732 l 1,4,-1
292 732 m 1,8,-1
 438.5 732 l 1,9,-1
 438.5 588 l 1,10,-1
 292.5 588 l 1,11,-1
 292 732 l 1,8,-1
438.5 588 m 1,12,-1
 584.5 588 l 5,13,-1
 584.5 440 l 5,14,-1
 438.5 440 l 1,15,-1
 438.5 588 l 1,12,-1
292.5 440 m 1,16,-1
 438.5 440 l 1,17,-1
 438.5 294 l 1,18,-1
 292.5 294 l 1,19,-1
 292.5 440 l 1,16,-1
293 3 m 1,20,-1
 293 149 l 1,21,-1
 439 149 l 1,22,-1
 439 3 l 1,23,-1
 293 3 l 1,20,-1
EndSplineSet
EndChar

StartChar: at
Encoding: 64 64 32
Width: 877
GlyphClass: 1
Flags: W
LayerCount: 2
Fore
SplineSet
292 1024 m 1,0,-1
 438 1024 l 1,1,-1
 438 -144 l 1,2,-1
 292 -144 l 5,3,-1
 292 1024 l 1,0,-1
EndSplineSet
EndChar

StartChar: A
Encoding: 65 65 33
Width: 878
GlyphClass: 1
Flags: W
LayerCount: 2
Fore
SplineSet
0 3 m 1,0,-1
 0 733 l 1,1,-1
 730 733 l 1,2,-1
 730 3 l 1,3,-1
 584 3 l 1,4,-1
 584 295 l 1,5,-1
 146 295 l 1,6,-1
 146 3 l 1,7,-1
 0 3 l 1,0,-1
146 587 m 1,8,-1
 146 441 l 1,9,-1
 584 441 l 1,10,-1
 584 587 l 1,11,-1
 146 587 l 1,8,-1
EndSplineSet
Validated: 1
EndChar

StartChar: B
Encoding: 66 66 34
Width: 877
GlyphClass: 1
Flags: W
LayerCount: 2
Fore
SplineSet
0 3 m 1,0,-1
 0 733 l 1,1,-1
 584 733 l 1,2,-1
 584 441 l 1,3,-1
 730 441 l 1,4,-1
 730 3 l 1,5,-1
 0 3 l 1,0,-1
146 295 m 1,6,-1
 146 149 l 1,7,-1
 584 149 l 1,8,-1
 584 295 l 1,9,-1
 146 295 l 1,6,-1
146 587 m 1,10,-1
 146 441 l 1,11,-1
 438 441 l 1,12,-1
 438 587 l 1,13,-1
 146 587 l 1,10,-1
EndSplineSet
Validated: 1
EndChar

StartChar: C
Encoding: 67 67 35
Width: 878
GlyphClass: 1
Flags: W
LayerCount: 2
Fore
SplineSet
0 3 m 1,0,-1
 0 733 l 1,1,-1
 730 733 l 1,2,-1
 730 587 l 1,3,-1
 146 587 l 1,4,-1
 146 149 l 1,5,-1
 730 149 l 1,6,-1
 730 3 l 1,7,-1
 0 3 l 1,0,-1
EndSplineSet
Validated: 1
EndChar

StartChar: D
Encoding: 68 68 36
Width: 879
GlyphClass: 1
Flags: W
LayerCount: 2
Fore
SplineSet
0 3 m 1,0,-1
 0 733 l 1,1,-1
 584 733 l 1,2,-1
 584 587 l 1,3,-1
 146 587 l 1,4,-1
 146 149 l 1,5,-1
 584 149 l 1,6,-1
 584 587 l 1,7,-1
 730 587 l 1,8,-1
 730.5 148 l 1,9,10
 730.5 148 730.5 148 584 149 c 1,11,-1
 584 2 l 1,12,13
 581 2 581 2 0 3 c 1,0,-1
EndSplineSet
Validated: 5
EndChar

StartChar: E
Encoding: 69 69 37
Width: 877
GlyphClass: 1
Flags: W
LayerCount: 2
Fore
SplineSet
0 2 m 1,0,-1
 0 732 l 1,1,-1
 730.5 732 l 1,2,-1
 730.5 588 l 1,3,-1
 146.5 588 l 1,4,-1
 146.5 440 l 1,5,-1
 584.5 440 l 1,6,-1
 584.5 294 l 1,7,-1
 146.5 294 l 1,8,-1
 146.5 148 l 1,9,-1
 730.5 148 l 1,10,-1
 730 2 l 1,11,-1
 0 2 l 1,0,-1
EndSplineSet
Validated: 1
EndChar

StartChar: F
Encoding: 70 70 38
Width: 876
GlyphClass: 1
Flags: W
LayerCount: 2
Fore
SplineSet
0 3 m 1,0,-1
 0 733 l 1,1,-1
 730 733 l 1,2,-1
 730 587 l 1,3,-1
 146 587 l 1,4,-1
 146 441 l 1,5,-1
 730 441 l 1,6,-1
 730 295 l 1,7,-1
 146 295 l 1,8,-1
 146 3 l 1,9,-1
 0 3 l 1,0,-1
EndSplineSet
Validated: 1
EndChar

StartChar: G
Encoding: 71 71 39
Width: 877
GlyphClass: 1
Flags: W
LayerCount: 2
Fore
SplineSet
0 3 m 1,0,-1
 0 733 l 1,1,-1
 730 733 l 1,2,-1
 730 587 l 1,3,-1
 146 587 l 1,4,-1
 146 149 l 1,5,-1
 584 149 l 1,6,-1
 584 295 l 1,7,-1
 292 295 l 1,8,-1
 292 441 l 1,9,-1
 730 441 l 1,10,-1
 730 3 l 1,11,-1
 0 3 l 1,0,-1
EndSplineSet
Validated: 1
EndChar

StartChar: H
Encoding: 72 72 40
Width: 876
GlyphClass: 1
Flags: W
LayerCount: 2
Fore
SplineSet
0 3 m 1,0,-1
 0 733 l 1,1,-1
 146 733 l 1,2,-1
 146 441 l 1,3,-1
 584 441 l 1,4,-1
 584 733 l 1,5,-1
 730 733 l 1,6,-1
 730 3 l 1,7,-1
 584 3 l 1,8,-1
 584 295 l 1,9,-1
 146 295 l 1,10,-1
 146 3 l 1,11,-1
 0 3 l 1,0,-1
EndSplineSet
Validated: 1
EndChar

StartChar: I
Encoding: 73 73 41
Width: 878
GlyphClass: 1
Flags: W
LayerCount: 2
Fore
SplineSet
0 0 m 1,0,-1
 0 146 l 1,1,-1
 290 146 l 1,2,-1
 290 584 l 1,3,-1
 0 584 l 1,4,-1
 0 730 l 1,5,-1
 732 730 l 1,6,-1
 732 584 l 1,7,-1
 436 584 l 1,8,-1
 436 146 l 1,9,-1
 732 146 l 1,10,-1
 732 0 l 1,11,-1
 0 0 l 1,0,-1
EndSplineSet
Validated: 1
EndChar

StartChar: J
Encoding: 74 74 42
Width: 876
GlyphClass: 1
Flags: W
LayerCount: 2
Fore
SplineSet
730 732 m 1,0,-1
 730.5 588 l 1,1,-1
 438.5 588 l 1,2,-1
 439 732 l 1,3,-1
 730 732 l 1,0,-1
0 2 m 1,4,-1
 0 295 l 1,5,-1
 146 295 l 1,6,-1
 146 149 l 1,7,-1
 439 148 l 1,8,-1
 438.5 588 l 1,9,-1
 146.5 588 l 1,10,-1
 146.5 732 l 1,11,-1
 584.5 732 l 5,12,-1
 584.5 588 l 1,13,-1
 584.5 0 l 1,14,-1
 439.5 0 l 1,15,-1
 0 2 l 1,4,-1
EndSplineSet
EndChar

StartChar: K
Encoding: 75 75 43
Width: 879
GlyphClass: 1
Flags: W
LayerCount: 2
Fore
SplineSet
730 2 m 1,0,-1
 584 2 l 1,1,-1
 584.5 148 l 1,2,-1
 730 148 l 1,3,-1
 730 2 l 1,0,-1
584.5 148 m 1,4,-1
 439 148 l 1,5,-1
 438 294 l 1,6,-1
 584.5 294 l 1,7,-1
 584.5 148 l 1,4,-1
584 732 m 1,8,-1
 730 732 l 1,9,-1
 730 588 l 1,10,-1
 584 588 l 1,11,-1
 584 732 l 1,8,-1
438 588 m 1,12,-1
 584 588 l 1,13,-1
 584 440 l 1,14,-1
 438 440 l 1,15,-1
 438 588 l 1,12,-1
94 440 m 1,16,-1
 438 440 l 1,17,-1
 438 294 l 1,18,-1
 94 294 l 1,19,-1
 94 440 l 1,16,-1
0 732 m 1,20,-1
 146 732 l 1,21,-1
 146 0 l 1,22,-1
 0 0 l 1,23,-1
 0 732 l 1,20,-1
EndSplineSet
Validated: 2053
EndChar

StartChar: L
Encoding: 76 76 44
Width: 877
GlyphClass: 1
Flags: W
LayerCount: 2
Fore
SplineSet
0 3 m 1,0,-1
 0 733 l 1,1,-1
 146 733 l 1,2,-1
 146 149 l 1,3,-1
 730 149 l 1,4,-1
 730 3 l 1,5,-1
 0 3 l 1,0,-1
EndSplineSet
Validated: 1
EndChar

StartChar: M
Encoding: 77 77 45
Width: 878
GlyphClass: 1
Flags: W
LayerCount: 2
Fore
SplineSet
0 3 m 1,0,-1
 0 733 l 1,1,-1
 146 733 l 1,2,-1
 146 587 l 1,3,-1
 292 587 l 1,4,-1
 292 441 l 1,5,-1
 146 441 l 1,6,-1
 146 3 l 1,7,-1
 0 3 l 1,0,-1
292 295 m 1,8,-1
 292 441 l 1,9,-1
 438 441 l 1,10,-1
 438 295 l 1,11,-1
 292 295 l 1,8,-1
438 587 m 1,12,-1
 584 587 l 1,13,-1
 584 733 l 1,14,-1
 730 733 l 1,15,-1
 730 3 l 1,16,-1
 584 3 l 1,17,-1
 584 441 l 1,18,-1
 438 441 l 1,19,-1
 438 587 l 1,12,-1
EndSplineSet
Validated: 5
EndChar

StartChar: N
Encoding: 78 78 46
Width: 879
GlyphClass: 1
Flags: W
LayerCount: 2
Fore
SplineSet
0 3 m 1,0,-1
 0 733 l 1,1,-1
 146 733 l 1,2,-1
 146 587 l 1,3,-1
 292 587 l 1,4,-1
 292 441 l 1,5,-1
 146 441 l 1,6,-1
 146 3 l 1,7,-1
 0 3 l 1,0,-1
584 3 m 1,8,-1
 584 149 l 1,9,-1
 438 149 l 1,10,-1
 438 295 l 1,11,-1
 584 295 l 1,12,-1
 584 733 l 1,13,-1
 730 733 l 1,14,-1
 730 3 l 1,15,-1
 584 3 l 1,8,-1
438 441 m 1,16,-1
 438 295 l 1,17,-1
 292 295 l 1,18,-1
 292 441 l 1,19,-1
 438 441 l 1,16,-1
EndSplineSet
Validated: 5
EndChar

StartChar: O
Encoding: 79 79 47
Width: 877
GlyphClass: 1
Flags: W
LayerCount: 2
Fore
SplineSet
146 0 m 1,0,-1
 146 150 l 1,1,-1
 584 150 l 1,2,-1
 584 0 l 1,3,-1
 146 0 l 1,0,-1
146 734 m 1,4,-1
 584 734 l 1,5,-1
 584 590 l 1,6,-1
 146 590 l 1,7,-1
 146 734 l 1,4,-1
584 590 m 1,8,-1
 730 590 l 1,9,-1
 730 150 l 1,10,-1
 584 150 l 1,11,-1
 584 590 l 1,8,-1
0 590 m 1,12,-1
 146 590 l 1,13,-1
 146 150 l 1,14,-1
 0 150 l 1,15,-1
 0 590 l 1,12,-1
EndSplineSet
Validated: 5
EndChar

StartChar: P
Encoding: 80 80 48
Width: 877
GlyphClass: 1
Flags: W
LayerCount: 2
Fore
SplineSet
0 3 m 1,0,-1
 0 733 l 1,1,-1
 730 733 l 1,2,-1
 730 295 l 1,3,-1
 146 295 l 1,4,-1
 146 3 l 1,5,-1
 0 3 l 1,0,-1
146 587 m 1,6,-1
 146 441 l 1,7,-1
 584 441 l 1,8,-1
 584 587 l 1,9,-1
 146 587 l 1,6,-1
EndSplineSet
Validated: 1
EndChar

StartChar: Q
Encoding: 81 81 49
Width: 878
GlyphClass: 1
Flags: W
LayerCount: 2
Fore
SplineSet
584.5 599 m 1,0,-1
 730.5 608 l 1,1,-1
 730.5 284 l 1,2,-1
 584.5 281 l 1,3,-1
 584.5 599 l 1,0,-1
0 612 m 1,4,-1
 146.5 607 l 1,5,-1
 146.5 281 l 1,6,-1
 0 276 l 1,7,-1
 0 612 l 1,4,-1
292.5 165 m 1,8,-1
 438.5 162 l 1,9,-1
 439 2 l 1,10,-1
 292 2 l 1,11,-1
 292.5 165 l 1,8,-1
0 294 m 1,12,-1
 730.5 294 l 1,13,-1
 730.5 148 l 1,14,-1
 0 148 l 1,15,-1
 0 294 l 1,12,-1
0.5 732 m 1,16,-1
 730.5 732 l 1,17,-1
 730.5 588 l 1,18,-1
 0 588 l 1,19,-1
 0.5 732 l 1,16,-1
EndSplineSet
Validated: 5
EndChar

StartChar: R
Encoding: 82 82 50
Width: 878
GlyphClass: 1
Flags: W
LayerCount: 2
Fore
SplineSet
0 3 m 1,0,-1
 0 733 l 1,1,-1
 730 733 l 1,2,-1
 730 295 l 1,3,-1
 584 295 l 1,4,-1
 584 149 l 1,5,-1
 730 149 l 1,6,-1
 730 3 l 1,7,-1
 584 2 l 1,8,9
 584 2 584 2 584 149 c 1,10,-1
 438.5 148 l 1,11,12
 438.5 148 438.5 148 438 295 c 1,13,-1
 146 295 l 1,14,-1
 146 3 l 1,15,-1
 0 3 l 1,0,-1
146 587 m 1,16,-1
 146 441 l 1,17,-1
 584 441 l 1,18,-1
 584 587 l 1,19,-1
 146 587 l 1,16,-1
EndSplineSet
Validated: 5
EndChar

StartChar: S
Encoding: 83 83 51
Width: 879
GlyphClass: 1
Flags: W
LayerCount: 2
Fore
SplineSet
0 3 m 1,0,-1
 0 149 l 1,1,-1
 584 149 l 1,2,-1
 584 295 l 1,3,-1
 0 295 l 1,4,-1
 0 733 l 1,5,-1
 730 733 l 1,6,-1
 730 587 l 1,7,-1
 146 587 l 1,8,-1
 146 441 l 1,9,-1
 730 441 l 1,10,-1
 730 3 l 1,11,-1
 0 3 l 1,0,-1
EndSplineSet
Validated: 1
EndChar

StartChar: T
Encoding: 84 84 52
Width: 877
GlyphClass: 1
Flags: W
LayerCount: 2
Fore
SplineSet
0 587 m 1,0,-1
 0 733 l 1,1,-1
 730 733 l 1,2,-1
 730 587 l 1,3,-1
 438 587 l 1,4,-1
 438 3 l 1,5,-1
 292 3 l 1,6,-1
 292 587 l 1,7,-1
 0 587 l 1,0,-1
EndSplineSet
Validated: 1
EndChar

StartChar: U
Encoding: 85 85 53
Width: 877
GlyphClass: 1
Flags: W
LayerCount: 2
Fore
SplineSet
0 3 m 1,0,-1
 0 733 l 1,1,-1
 146 733 l 1,2,-1
 146 149 l 1,3,-1
 584 149 l 1,4,-1
 584 733 l 1,5,-1
 730 733 l 1,6,-1
 730 3 l 1,7,-1
 0 3 l 1,0,-1
EndSplineSet
Validated: 1
EndChar

StartChar: V
Encoding: 86 86 54
Width: 877
GlyphClass: 1
Flags: W
LayerCount: 2
Fore
SplineSet
292 2 m 1,0,-1
 292 148 l 1,1,-1
 438 148 l 1,2,-1
 438 2 l 1,3,-1
 292 2 l 1,0,-1
584 148 m 1,4,-1
 438 148 l 1,5,-1
 438 440 l 1,6,-1
 584 440 l 1,7,-1
 584 148 l 1,4,-1
292 148 m 1,8,-1
 146 148 l 1,9,-1
 146 440 l 1,10,-1
 292 440 l 1,11,-1
 292 148 l 1,8,-1
584 732 m 1,12,-1
 730 732 l 1,13,-1
 730 440 l 1,14,-1
 584 440 l 1,15,-1
 584 732 l 1,12,-1
0 732 m 1,16,-1
 146 732 l 1,17,-1
 147 440 l 1,18,-1
 1 440 l 1,19,-1
 0 732 l 1,16,-1
EndSplineSet
Validated: 5
EndChar

StartChar: W
Encoding: 87 87 55
Width: 877
GlyphClass: 1
Flags: W
LayerCount: 2
Fore
SplineSet
439 2 m 1,0,-1
 438 149 l 1,1,-1
 584 149 l 1,2,-1
 585 2 l 1,3,-1
 439 2 l 1,0,-1
146 2 m 1,4,-1
 146 148 l 1,5,-1
 292.5 148 l 1,6,-1
 292.5 2 l 1,7,-1
 146 2 l 1,4,-1
292 440 m 1,8,-1
 438 440 l 1,9,-1
 438 147 l 1,10,-1
 292 147 l 1,11,-1
 292 440 l 1,8,-1
584 732 m 1,12,-1
 730 732 l 1,13,-1
 730 148 l 1,14,-1
 584 148 l 1,15,-1
 584 732 l 1,12,-1
0 732 m 1,16,-1
 146 732 l 1,17,-1
 146 148 l 1,18,-1
 0 148 l 1,19,-1
 0 732 l 1,16,-1
EndSplineSet
Validated: 5
EndChar

StartChar: X
Encoding: 88 88 56
Width: 879
GlyphClass: 1
Flags: MW
LayerCount: 2
Fore
SplineSet
0 2 m 1,0,-1
 0 148 l 1,1,-1
 146 148 l 1,2,-1
 146 2 l 1,3,-1
 0 2 l 1,0,-1
584 1 m 1,4,-1
 584 149 l 1,5,-1
 732 149 l 1,6,-1
 732 1 l 1,7,-1
 584 1 l 1,4,-1
438 295 m 1,8,-1
 584 295 l 1,9,-1
 584 149 l 1,10,-1
 438 149 l 1,11,-1
 438 295 l 1,8,-1
146 295 m 1,12,-1
 292 295 l 1,13,-1
 292 148 l 1,14,-1
 146 148 l 1,15,-1
 146 295 l 1,12,-1
292 440 m 1,16,-1
 438 440 l 1,17,-1
 438 295 l 1,18,-1
 292 295 l 1,19,-1
 292 440 l 1,16,-1
438 587 m 1,20,-1
 584 587 l 1,21,-1
 584 441 l 1,22,-1
 438 441 l 1,23,-1
 438 587 l 1,20,-1
146 588 m 1,24,-1
 292 588 l 1,25,-1
 292 440 l 1,26,-1
 146 440 l 1,27,-1
 146 588 l 1,24,-1
584 731 m 1,28,-1
 732 731 l 1,29,-1
 732 588 l 1,30,-1
 584 588 l 1,31,-1
 584 731 l 1,28,-1
0.5 731 m 1,32,-1
 146.5 731 l 1,33,-1
 146 588 l 1,34,-1
 0 588 l 1,35,-1
 0.5 731 l 1,32,-1
EndSplineSet
Validated: 2053
EndChar

StartChar: Y
Encoding: 89 89 57
Width: 878
GlyphClass: 1
Flags: W
LayerCount: 2
Fore
SplineSet
730 732 m 1,0,-1
 730 440 l 1,1,-1
 584 440 l 1,2,-1
 584 732 l 1,3,-1
 730 732 l 1,0,-1
0 734 m 1,4,-1
 146 734 l 1,5,-1
 146 440 l 1,6,-1
 0 440 l 1,7,-1
 0 734 l 1,4,-1
438 440 m 1,8,-1
 584 440 l 1,9,-1
 584 294 l 1,10,-1
 438 294 l 1,11,-1
 438 440 l 1,8,-1
146 440 m 1,12,-1
 292 440 l 1,13,-1
 292 294 l 1,14,-1
 146 294 l 1,15,-1
 146 440 l 1,12,-1
292 294 m 1,16,-1
 438 294 l 1,17,-1
 438 0 l 1,18,-1
 292 0 l 1,19,-1
 292 294 l 1,16,-1
EndSplineSet
Validated: 5
EndChar

StartChar: Z
Encoding: 90 90 58
Width: 878
GlyphClass: 1
Flags: W
LayerCount: 2
Fore
SplineSet
0 733 m 1,0,-1
 731 733 l 1,1,-1
 731 587 l 1,2,-1
 585 587 l 1,3,-1
 585 441 l 1,4,-1
 439 441 l 1,5,-1
 439 587 l 1,6,-1
 0 587 l 1,7,-1
 0 733 l 1,0,-1
0 148 m 1,8,-1
 146 148 l 1,9,-1
 146 294 l 1,10,-1
 292 294 l 1,11,-1
 292 148 l 1,12,-1
 731 148 l 1,13,-1
 731 2 l 1,14,-1
 0 2 l 1,15,-1
 0 148 l 1,8,-1
439 294 m 1,16,-1
 292 294 l 1,17,-1
 292 441 l 1,18,-1
 439 441 l 1,19,-1
 439 294 l 1,16,-1
EndSplineSet
Validated: 5
EndChar

StartChar: bracketleft
Encoding: 91 91 59
Width: 876
GlyphClass: 1
Flags: W
LayerCount: 2
Fore
SplineSet
0 146 m 1,0,-1
 731 146 l 1,1,-1
 731 0 l 1,2,-1
 0 0 l 1,3,-1
 0 146 l 1,0,-1
586 0 m 1,4,-1
 586 630 l 1,5,-1
 731 630 l 1,6,-1
 731 0 l 1,7,-1
 586 0 l 1,4,-1
0 0 m 1,8,-1
 0 614 l 1,9,-1
 146 614 l 1,10,-1
 146 0 l 1,11,-1
 0 0 l 1,8,-1
0 733 m 1,12,-1
 731 733 l 1,13,-1
 731 588 l 1,14,-1
 0 588 l 1,15,-1
 0 733 l 1,12,-1
EndSplineSet
Validated: 5
EndChar

StartChar: backslash
Encoding: 92 92 60
Width: 876
GlyphClass: 1
Flags: W
LayerCount: 2
Fore
SplineSet
730.5 732 m 1,0,-1
 730 2 l 1,1,-1
 585 2 l 1,2,-1
 584.5 732 l 1,3,-1
 730.5 732 l 1,0,-1
438.5 588 m 1,4,-1
 585 588 l 1,5,-1
 586 440 l 1,6,-1
 438.5 440 l 1,7,-1
 438.5 588 l 1,4,-1
0 440 m 1,8,-1
 292 440 l 1,9,-1
 292 295 l 1,10,-1
 0 295 l 1,11,-1
 0 440 l 1,8,-1
EndSplineSet
Validated: 5
EndChar

StartChar: bracketright
Encoding: 93 93 61
Width: 879
GlyphClass: 1
Flags: W
LayerCount: 2
Fore
SplineSet
0 735 m 1,0,-1
 731 735 l 1,1,-1
 731 0 l 1,2,-1
 0 0 l 1,3,-1
 0 735 l 1,0,-1
EndSplineSet
Validated: 1
EndChar

StartChar: asciicircum
Encoding: 94 94 62
Width: 877
GlyphClass: 1
Flags: W
LayerCount: 2
Fore
SplineSet
292.5 588 m 1,0,-1
 438.5 588 l 1,1,-1
 438.5 440 l 1,2,-1
 292.5 440 l 1,3,-1
 292.5 588 l 1,0,-1
438.5 440 m 1,4,-1
 584.5 440 l 1,5,-1
 584.5 293 l 1,6,-1
 438.5 293 l 1,7,-1
 438.5 440 l 1,4,-1
146.5 441 m 1,8,-1
 292.5 441 l 1,9,-1
 292.5 293 l 1,10,-1
 146.5 293 l 1,11,-1
 146.5 441 l 1,8,-1
584.5 293 m 1,12,-1
 730.5 293 l 1,13,-1
 730.5 148 l 1,14,-1
 584.5 148 l 1,15,-1
 584.5 293 l 1,12,-1
0.5 293 m 1,16,-1
 146.5 293 l 1,17,-1
 146.5 147 l 5,18,-1
 0.5 147 l 1,19,-1
 0.5 293 l 1,16,-1
EndSplineSet
EndChar

StartChar: underscore
Encoding: 95 95 63
Width: 877
GlyphClass: 1
Flags: W
LayerCount: 2
Fore
SplineSet
584 588 m 1,0,-1
 731 588 l 1,1,-1
 731 440 l 1,2,3
 730 440 730 440 584 440 c 1,4,-1
 584 588 l 1,0,-1
438 440 m 1,5,-1
 584 440 l 1,6,-1
 584 296 l 1,7,-1
 438 296 l 1,8,-1
 438 440 l 1,5,-1
438 150 m 1,9,-1
 292 150 l 1,10,-1
 292 296 l 1,11,-1
 438 296 l 1,12,-1
 438 150 l 1,9,-1
292 296 m 1,13,-1
 146 296 l 1,14,-1
 146 440 l 1,15,-1
 292 440 l 1,16,-1
 292 296 l 1,13,-1
0 590 m 1,17,-1
 146 590 l 1,18,-1
 146 440 l 1,19,-1
 0 440 l 1,20,-1
 0 590 l 1,17,-1
EndSplineSet
Validated: 5
EndChar

StartChar: a
Encoding: 97 97 64
Width: 876
Flags: W
LayerCount: 2
Fore
SplineSet
293 2 m 1,0,-1
 293 148 l 1,1,2
 292 148 292 148 438 148 c 1,3,-1
 438 2 l 1,4,5
 292 2 292 2 293 2 c 1,0,-1
438.5 148 m 1,6,-1
 438 294 l 1,7,-1
 584.5 294 l 1,8,-1
 584.5 148 l 1,9,-1
 438.5 148 l 1,6,-1
146.5 148 m 1,10,-1
 146.5 294 l 1,11,-1
 292.5 294 l 1,12,-1
 292.5 148 l 1,13,-1
 146.5 148 l 1,10,-1
584.5 440 m 1,14,-1
 730.5 440 l 1,15,-1
 730.5 294 l 1,16,-1
 584.5 294 l 1,17,-1
 584.5 440 l 1,14,-1
0 294 m 1,18,-1
 0 440 l 1,19,-1
 146.5 440 l 1,20,-1
 146.5 294 l 1,21,-1
 0 294 l 1,18,-1
438.5 440 m 1,22,-1
 438 588 l 1,23,-1
 584.5 588 l 1,24,-1
 584.5 440 l 1,25,-1
 438.5 440 l 1,22,-1
146.5 148 m 1,26,-1
 146.5 588 l 1,27,-1
 584.5 588 l 1,28,-1
 584.5 148 l 5,29,-1
 146.5 148 l 1,26,-1
292.5 588 m 1,30,-1
 292.5 732 l 1,31,-1
 438.5 732 l 1,32,-1
 438.5 588 l 1,33,-1
 292.5 588 l 1,30,-1
EndSplineSet
EndChar

StartChar: b
Encoding: 98 98 65
Width: 877
Flags: W
LayerCount: 2
Fore
SplineSet
0 3 m 1,0,-1
 0 733 l 1,1,-1
 584 733 l 1,2,-1
 584 441 l 1,3,-1
 730 441 l 1,4,-1
 730 3 l 1,5,-1
 0 3 l 1,0,-1
146 295 m 1,6,-1
 146 149 l 1,7,-1
 584 149 l 1,8,-1
 584 295 l 1,9,-1
 146 295 l 1,6,-1
146 587 m 1,10,-1
 146 441 l 1,11,-1
 438 441 l 1,12,-1
 438 587 l 1,13,-1
 146 587 l 1,10,-1
EndSplineSet
EndChar

StartChar: c
Encoding: 99 99 66
Width: 878
Flags: W
LayerCount: 2
Fore
SplineSet
0 3 m 1,0,-1
 0 733 l 1,1,-1
 730 733 l 1,2,-1
 730 587 l 1,3,-1
 146 587 l 1,4,-1
 146 149 l 1,5,-1
 730 149 l 1,6,-1
 730 3 l 1,7,-1
 0 3 l 1,0,-1
EndSplineSet
EndChar

StartChar: d
Encoding: 100 100 67
Width: 879
Flags: W
LayerCount: 2
Fore
SplineSet
0 3 m 1,0,-1
 0 733 l 1,1,-1
 584 733 l 1,2,-1
 584 587 l 1,3,-1
 146 587 l 1,4,-1
 146 149 l 1,5,-1
 584 149 l 1,6,-1
 584 587 l 1,7,-1
 730 587 l 1,8,-1
 730.5 148 l 1,9,10
 730.5 148 730.5 148 584 149 c 1,11,-1
 584 2 l 1,12,13
 581 2 581 2 0 3 c 1,0,-1
EndSplineSet
EndChar

StartChar: e
Encoding: 101 101 68
Width: 877
Flags: W
LayerCount: 2
Fore
SplineSet
0 2 m 1,0,-1
 0 732 l 1,1,-1
 730.5 732 l 1,2,-1
 730.5 588 l 1,3,-1
 146.5 588 l 1,4,-1
 146.5 440 l 1,5,-1
 584.5 440 l 1,6,-1
 584.5 294 l 1,7,-1
 146.5 294 l 1,8,-1
 146.5 148 l 1,9,-1
 730.5 148 l 1,10,-1
 730 2 l 1,11,-1
 0 2 l 1,0,-1
EndSplineSet
EndChar

StartChar: f
Encoding: 102 102 69
Width: 876
Flags: W
LayerCount: 2
Fore
SplineSet
0 3 m 1,0,-1
 0 733 l 1,1,-1
 730 733 l 1,2,-1
 730 587 l 1,3,-1
 146 587 l 1,4,-1
 146 441 l 1,5,-1
 730 441 l 1,6,-1
 730 295 l 1,7,-1
 146 295 l 1,8,-1
 146 3 l 1,9,-1
 0 3 l 1,0,-1
EndSplineSet
EndChar

StartChar: g
Encoding: 103 103 70
Width: 877
Flags: W
LayerCount: 2
Fore
SplineSet
0 3 m 1,0,-1
 0 733 l 1,1,-1
 730 733 l 1,2,-1
 730 587 l 1,3,-1
 146 587 l 1,4,-1
 146 149 l 1,5,-1
 584 149 l 1,6,-1
 584 295 l 1,7,-1
 292 295 l 1,8,-1
 292 441 l 1,9,-1
 730 441 l 1,10,-1
 730 3 l 1,11,-1
 0 3 l 1,0,-1
EndSplineSet
EndChar

StartChar: h
Encoding: 104 104 71
Width: 876
Flags: W
LayerCount: 2
Fore
SplineSet
0 3 m 1,0,-1
 0 733 l 1,1,-1
 146 733 l 1,2,-1
 146 441 l 1,3,-1
 584 441 l 1,4,-1
 584 733 l 1,5,-1
 730 733 l 1,6,-1
 730 3 l 1,7,-1
 584 3 l 1,8,-1
 584 295 l 1,9,-1
 146 295 l 1,10,-1
 146 3 l 1,11,-1
 0 3 l 1,0,-1
EndSplineSet
EndChar

StartChar: i
Encoding: 105 105 72
Width: 878
Flags: W
LayerCount: 2
Fore
SplineSet
0 0 m 1,0,-1
 0 146 l 1,1,-1
 290 146 l 1,2,-1
 290 584 l 1,3,-1
 0 584 l 1,4,-1
 0 730 l 1,5,-1
 732 730 l 1,6,-1
 732 584 l 1,7,-1
 436 584 l 1,8,-1
 436 146 l 1,9,-1
 732 146 l 1,10,-1
 732 0 l 1,11,-1
 0 0 l 1,0,-1
EndSplineSet
EndChar

StartChar: j
Encoding: 106 106 73
Width: 876
Flags: W
LayerCount: 2
Fore
SplineSet
730 732 m 1,0,-1
 730 586 l 1,1,-1
 439 586 l 1,2,-1
 439 732 l 1,3,-1
 730 732 l 1,0,-1
0 2 m 1,4,-1
 0 295 l 1,5,-1
 146 295 l 1,6,-1
 146 149 l 1,7,-1
 439 148 l 1,8,-1
 439 586 l 1,9,-1
 146.5 586 l 5,10,-1
 146.5 732 l 5,11,-1
 584.5 731 l 1,12,-1
 584.5 585 l 1,13,-1
 584.5 0 l 1,14,-1
 439.5 0 l 1,15,-1
 0 2 l 1,4,-1
EndSplineSet
EndChar

StartChar: k
Encoding: 107 107 74
Width: 879
Flags: W
LayerCount: 2
Fore
SplineSet
730 2 m 1,0,-1
 584 2 l 1,1,-1
 584.5 148 l 1,2,-1
 730 148 l 1,3,-1
 730 2 l 1,0,-1
584.5 148 m 1,4,-1
 439 148 l 1,5,-1
 438 294 l 1,6,-1
 584.5 294 l 1,7,-1
 584.5 148 l 1,4,-1
584 732 m 1,8,-1
 730 732 l 1,9,-1
 730 588 l 1,10,-1
 584 588 l 1,11,-1
 584 732 l 1,8,-1
438 588 m 1,12,-1
 584 588 l 1,13,-1
 584 440 l 1,14,-1
 438 440 l 1,15,-1
 438 588 l 1,12,-1
94 440 m 1,16,-1
 438 440 l 1,17,-1
 438 294 l 1,18,-1
 94 294 l 1,19,-1
 94 440 l 1,16,-1
0 732 m 1,20,-1
 146 732 l 1,21,-1
 146 0 l 1,22,-1
 0 0 l 1,23,-1
 0 732 l 1,20,-1
EndSplineSet
EndChar

StartChar: l
Encoding: 108 108 75
Width: 877
Flags: W
LayerCount: 2
Fore
SplineSet
0 3 m 1,0,-1
 0 733 l 1,1,-1
 146 733 l 1,2,-1
 146 149 l 1,3,-1
 730 149 l 1,4,-1
 730 3 l 1,5,-1
 0 3 l 1,0,-1
EndSplineSet
EndChar

StartChar: m
Encoding: 109 109 76
Width: 878
Flags: W
LayerCount: 2
Fore
SplineSet
0 3 m 1,0,-1
 0 733 l 1,1,-1
 146 733 l 1,2,-1
 146 587 l 1,3,-1
 292 587 l 1,4,-1
 292 441 l 1,5,-1
 146 441 l 1,6,-1
 146 3 l 1,7,-1
 0 3 l 1,0,-1
292 295 m 1,8,-1
 292 441 l 1,9,-1
 438 441 l 1,10,-1
 438 295 l 1,11,-1
 292 295 l 1,8,-1
438 587 m 1,12,-1
 584 587 l 1,13,-1
 584 733 l 1,14,-1
 730 733 l 1,15,-1
 730 3 l 1,16,-1
 584 3 l 1,17,-1
 584 441 l 1,18,-1
 438 441 l 1,19,-1
 438 587 l 1,12,-1
EndSplineSet
EndChar

StartChar: n
Encoding: 110 110 77
Width: 879
Flags: W
LayerCount: 2
Fore
SplineSet
0 3 m 1,0,-1
 0 733 l 1,1,-1
 146 733 l 1,2,-1
 146 587 l 1,3,-1
 292 587 l 1,4,-1
 292 441 l 1,5,-1
 146 441 l 1,6,-1
 146 3 l 1,7,-1
 0 3 l 1,0,-1
584 3 m 1,8,-1
 584 149 l 1,9,-1
 438 149 l 1,10,-1
 438 295 l 1,11,-1
 584 295 l 1,12,-1
 584 733 l 1,13,-1
 730 733 l 1,14,-1
 730 3 l 1,15,-1
 584 3 l 1,8,-1
438 441 m 1,16,-1
 438 295 l 1,17,-1
 292 295 l 1,18,-1
 292 441 l 1,19,-1
 438 441 l 1,16,-1
EndSplineSet
EndChar

StartChar: o
Encoding: 111 111 78
Width: 877
Flags: W
LayerCount: 2
Fore
SplineSet
146 0 m 1,0,-1
 146 150 l 1,1,-1
 584 150 l 1,2,-1
 584 0 l 1,3,-1
 146 0 l 1,0,-1
146 734 m 1,4,-1
 584 734 l 1,5,-1
 584 590 l 1,6,-1
 146 590 l 1,7,-1
 146 734 l 1,4,-1
584 590 m 1,8,-1
 730 590 l 1,9,-1
 730 150 l 1,10,-1
 584 150 l 1,11,-1
 584 590 l 1,8,-1
0 590 m 1,12,-1
 146 590 l 1,13,-1
 146 150 l 1,14,-1
 0 150 l 1,15,-1
 0 590 l 1,12,-1
EndSplineSet
EndChar

StartChar: p
Encoding: 112 112 79
Width: 877
Flags: W
LayerCount: 2
Fore
SplineSet
0 3 m 1,0,-1
 0 733 l 1,1,-1
 730 733 l 1,2,-1
 730 295 l 1,3,-1
 146 295 l 1,4,-1
 146 3 l 1,5,-1
 0 3 l 1,0,-1
146 587 m 1,6,-1
 146 441 l 1,7,-1
 584 441 l 1,8,-1
 584 587 l 1,9,-1
 146 587 l 1,6,-1
EndSplineSet
EndChar

StartChar: q
Encoding: 113 113 80
Width: 878
Flags: W
LayerCount: 2
Fore
SplineSet
584.5 599 m 1,0,-1
 730.5 608 l 1,1,-1
 730.5 284 l 1,2,-1
 584.5 281 l 1,3,-1
 584.5 599 l 1,0,-1
0 612 m 1,4,-1
 146.5 607 l 1,5,-1
 146.5 281 l 1,6,-1
 0 276 l 1,7,-1
 0 612 l 1,4,-1
292.5 165 m 1,8,-1
 438.5 162 l 1,9,-1
 439 2 l 1,10,-1
 292 2 l 1,11,-1
 292.5 165 l 1,8,-1
0 294 m 1,12,-1
 730.5 294 l 1,13,-1
 730.5 148 l 1,14,-1
 0 148 l 1,15,-1
 0 294 l 1,12,-1
0.5 732 m 1,16,-1
 730.5 732 l 1,17,-1
 730.5 588 l 1,18,-1
 0 588 l 1,19,-1
 0.5 732 l 1,16,-1
EndSplineSet
EndChar

StartChar: r
Encoding: 114 114 81
Width: 878
Flags: W
LayerCount: 2
Fore
SplineSet
0 3 m 1,0,-1
 0 733 l 1,1,-1
 730 733 l 1,2,-1
 730 295 l 1,3,-1
 584 295 l 1,4,-1
 584 149 l 1,5,-1
 730 149 l 1,6,-1
 730 3 l 1,7,-1
 584 2 l 1,8,9
 584 2 584 2 584 149 c 1,10,-1
 438.5 148 l 1,11,12
 438.5 148 438.5 148 438 295 c 1,13,-1
 146 295 l 1,14,-1
 146 3 l 1,15,-1
 0 3 l 1,0,-1
146 587 m 1,16,-1
 146 441 l 1,17,-1
 584 441 l 1,18,-1
 584 587 l 1,19,-1
 146 587 l 1,16,-1
EndSplineSet
EndChar

StartChar: s
Encoding: 115 115 82
Width: 879
Flags: W
LayerCount: 2
Fore
SplineSet
0 3 m 1,0,-1
 0 149 l 1,1,-1
 584 149 l 1,2,-1
 584 295 l 1,3,-1
 0 295 l 1,4,-1
 0 733 l 1,5,-1
 730 733 l 1,6,-1
 730 587 l 1,7,-1
 146 587 l 1,8,-1
 146 441 l 1,9,-1
 730 441 l 1,10,-1
 730 3 l 1,11,-1
 0 3 l 1,0,-1
EndSplineSet
EndChar

StartChar: t
Encoding: 116 116 83
Width: 877
Flags: W
LayerCount: 2
Fore
SplineSet
0 587 m 1,0,-1
 0 733 l 1,1,-1
 730 733 l 1,2,-1
 730 587 l 1,3,-1
 438 587 l 1,4,-1
 438 3 l 1,5,-1
 292 3 l 1,6,-1
 292 587 l 1,7,-1
 0 587 l 1,0,-1
EndSplineSet
EndChar

StartChar: u
Encoding: 117 117 84
Width: 877
Flags: W
LayerCount: 2
Fore
SplineSet
0 3 m 1,0,-1
 0 733 l 1,1,-1
 146 733 l 1,2,-1
 146 149 l 1,3,-1
 584 149 l 1,4,-1
 584 733 l 1,5,-1
 730 733 l 1,6,-1
 730 3 l 1,7,-1
 0 3 l 1,0,-1
EndSplineSet
EndChar

StartChar: v
Encoding: 118 118 85
Width: 877
Flags: W
LayerCount: 2
Fore
SplineSet
292 2 m 1,0,-1
 292 148 l 1,1,-1
 438 148 l 1,2,-1
 438 2 l 1,3,-1
 292 2 l 1,0,-1
584 148 m 1,4,-1
 438 148 l 1,5,-1
 438 440 l 1,6,-1
 584 440 l 1,7,-1
 584 148 l 1,4,-1
292 148 m 1,8,-1
 146 148 l 1,9,-1
 146 440 l 1,10,-1
 292 440 l 1,11,-1
 292 148 l 1,8,-1
584 732 m 1,12,-1
 730 732 l 1,13,-1
 730 440 l 1,14,-1
 584 440 l 1,15,-1
 584 732 l 1,12,-1
0 732 m 1,16,-1
 146 732 l 1,17,-1
 147 440 l 1,18,-1
 1 440 l 1,19,-1
 0 732 l 1,16,-1
EndSplineSet
EndChar

StartChar: w
Encoding: 119 119 86
Width: 877
Flags: W
LayerCount: 2
Fore
SplineSet
439 2 m 1,0,-1
 438 149 l 1,1,-1
 584 149 l 1,2,-1
 585 2 l 1,3,-1
 439 2 l 1,0,-1
146 2 m 1,4,-1
 146 148 l 1,5,-1
 292.5 148 l 1,6,-1
 292.5 2 l 1,7,-1
 146 2 l 1,4,-1
292 440 m 1,8,-1
 438 440 l 1,9,-1
 438 147 l 1,10,-1
 292 147 l 1,11,-1
 292 440 l 1,8,-1
584 732 m 1,12,-1
 730 732 l 1,13,-1
 730 148 l 1,14,-1
 584 148 l 1,15,-1
 584 732 l 1,12,-1
0 732 m 1,16,-1
 146 732 l 1,17,-1
 146 148 l 1,18,-1
 0 148 l 1,19,-1
 0 732 l 1,16,-1
EndSplineSet
EndChar

StartChar: x
Encoding: 120 120 87
Width: 879
Flags: W
LayerCount: 2
Fore
SplineSet
0 2 m 1,0,-1
 0 148 l 1,1,-1
 146 148 l 1,2,-1
 146 2 l 1,3,-1
 0 2 l 1,0,-1
584 1 m 1,4,-1
 584 149 l 1,5,-1
 732 149 l 1,6,-1
 732 1 l 1,7,-1
 584 1 l 1,4,-1
438 295 m 1,8,-1
 584 295 l 1,9,-1
 584 149 l 1,10,-1
 438 149 l 1,11,-1
 438 295 l 1,8,-1
146 295 m 1,12,-1
 292 295 l 1,13,-1
 292 148 l 1,14,-1
 146 148 l 1,15,-1
 146 295 l 1,12,-1
292 440 m 1,16,-1
 438 440 l 1,17,-1
 438 295 l 1,18,-1
 292 295 l 1,19,-1
 292 440 l 1,16,-1
438 587 m 1,20,-1
 584 587 l 1,21,-1
 584 441 l 1,22,-1
 438 441 l 1,23,-1
 438 587 l 1,20,-1
146 588 m 1,24,-1
 292 588 l 1,25,-1
 292 440 l 1,26,-1
 146 440 l 1,27,-1
 146 588 l 1,24,-1
584 731 m 1,28,-1
 732 731 l 1,29,-1
 732 588 l 1,30,-1
 584 588 l 1,31,-1
 584 731 l 1,28,-1
0.5 731 m 1,32,-1
 146.5 731 l 1,33,-1
 146 588 l 1,34,-1
 0 588 l 1,35,-1
 0.5 731 l 1,32,-1
EndSplineSet
EndChar

StartChar: y
Encoding: 121 121 88
Width: 878
Flags: W
LayerCount: 2
Fore
SplineSet
730 732 m 1,0,-1
 730 440 l 1,1,-1
 584 440 l 1,2,-1
 584 732 l 1,3,-1
 730 732 l 1,0,-1
0 734 m 1,4,-1
 146 734 l 1,5,-1
 146 440 l 1,6,-1
 0 440 l 1,7,-1
 0 734 l 1,4,-1
438 440 m 1,8,-1
 584 440 l 1,9,-1
 584 294 l 1,10,-1
 438 294 l 1,11,-1
 438 440 l 1,8,-1
146 440 m 1,12,-1
 292 440 l 1,13,-1
 292 294 l 1,14,-1
 146 294 l 1,15,-1
 146 440 l 1,12,-1
292 294 m 1,16,-1
 438 294 l 1,17,-1
 438 0 l 1,18,-1
 292 0 l 1,19,-1
 292 294 l 1,16,-1
EndSplineSet
EndChar

StartChar: z
Encoding: 122 122 89
Width: 878
Flags: W
LayerCount: 2
Fore
SplineSet
0 733 m 1,0,-1
 731 733 l 1,1,-1
 731 587 l 1,2,-1
 585 587 l 1,3,-1
 585 441 l 1,4,-1
 439 441 l 1,5,-1
 439 587 l 1,6,-1
 0 587 l 1,7,-1
 0 733 l 1,0,-1
0 148 m 1,8,-1
 146 148 l 1,9,-1
 146 294 l 1,10,-1
 292 294 l 1,11,-1
 292 148 l 1,12,-1
 731 148 l 1,13,-1
 731 2 l 1,14,-1
 0 2 l 1,15,-1
 0 148 l 1,8,-1
439 294 m 1,16,-1
 292 294 l 1,17,-1
 292 441 l 1,18,-1
 439 441 l 1,19,-1
 439 294 l 1,16,-1
EndSplineSet
EndChar

StartChar: grave
Encoding: 96 96 94
Width: 876
Flags: W
LayerCount: 2
Fore
SplineSet
292 1024 m 1,0,-1
 438 1024 l 1,1,-1
 438 588 l 1,2,-1
 292 588 l 1,3,-1
 292 1024 l 1,0,-1
292.5 148 m 1,4,-1
 438.5 148 l 1,5,-1
 438 -144 l 1,6,-1
 292 -144 l 5,7,-1
 292.5 148 l 1,4,-1
146 588 m 1,8,-1
 292.5 588 l 1,9,-1
 292.5 440 l 1,10,-1
 146 440 l 1,11,-1
 146 588 l 1,8,-1
0 440 m 1,12,-1
 146 440 l 1,13,-1
 146 294 l 1,14,-1
 0 294 l 1,15,-1
 0 440 l 1,12,-1
146 294 m 1,16,-1
 292 294 l 1,17,-1
 292.5 148 l 1,18,-1
 146 148 l 1,19,-1
 146 294 l 1,16,-1
EndSplineSet
EndChar
